<svg xmlns="http://www.w3.org/2000/svg" viewBox="0 0 32 32" fill="none">
  <rect width="32" height="32" rx="6" fill="#E63946"/>
  <path d="M8 12C8 10.8954 8.89543 10 10 10H22C23.1046 10 24 10.8954 24 12V13H8V12Z" fill="#FFB703"/>
  <rect x="7" y="14" width="18" height="3" rx="1" fill="#8B4513"/>
  <rect x="8" y="17" width="16" height="2" fill="#FFB703"/>
  <rect x="8" y="19" width="16" height="2" fill="#228B22"/>
  <path d="M7 22C7 21.4477 7.44772 21 8 21H24C24.5523 21 25 21.4477 25 22C25 22.5523 24.5523 23 24 23H8C7.44772 23 7 22.5523 7 22Z" fill="#FFB703"/>
</svg>
